<mxfile host="app.diagrams.net" agent="Mozilla/5.0 (Macintosh; Intel Mac OS X 10.15; rv:134.0) Gecko/20100101 Firefox/134.0" version="26.0.10">
  <diagram name="Page-1" id="pfxchOHp-bhJVi5Ow321">
    <mxGraphModel dx="977" dy="568" grid="1" gridSize="10" guides="1" tooltips="1" connect="1" arrows="1" fold="1" page="1" pageScale="1" pageWidth="1169" pageHeight="827" math="0" shadow="0">
      <root>
        <mxCell id="0" />
        <mxCell id="1" parent="0" />
        <mxCell id="iGM-KqZ_t17X9d6v6cXi-1" value="AWS Cloud" style="points=[[0,0],[0.25,0],[0.5,0],[0.75,0],[1,0],[1,0.25],[1,0.5],[1,0.75],[1,1],[0.75,1],[0.5,1],[0.25,1],[0,1],[0,0.75],[0,0.5],[0,0.25]];outlineConnect=0;gradientColor=none;html=1;whiteSpace=wrap;fontSize=12;fontStyle=0;container=1;pointerEvents=0;collapsible=0;recursiveResize=0;shape=mxgraph.aws4.group;grIcon=mxgraph.aws4.group_aws_cloud;strokeColor=#232F3E;fillColor=none;verticalAlign=top;align=left;spacingLeft=30;fontColor=#232F3E;dashed=0;" vertex="1" parent="1">
          <mxGeometry x="40" y="40" width="1080" height="762" as="geometry" />
        </mxCell>
        <mxCell id="iGM-KqZ_t17X9d6v6cXi-2" value="Competitors" style="points=[[0,0],[0.25,0],[0.5,0],[0.75,0],[1,0],[1,0.25],[1,0.5],[1,0.75],[1,1],[0.75,1],[0.5,1],[0.25,1],[0,1],[0,0.75],[0,0.5],[0,0.25]];outlineConnect=0;gradientColor=none;html=1;whiteSpace=wrap;fontSize=12;fontStyle=0;container=1;pointerEvents=0;collapsible=0;recursiveResize=0;shape=mxgraph.aws4.groupCenter;grIcon=mxgraph.aws4.group_auto_scaling_group;grStroke=1;strokeColor=#D86613;fillColor=none;verticalAlign=top;align=center;fontColor=#D86613;dashed=1;spacingTop=25;" vertex="1" parent="iGM-KqZ_t17X9d6v6cXi-1">
          <mxGeometry x="80" y="80" width="920" height="160" as="geometry" />
        </mxCell>
        <mxCell id="iGM-KqZ_t17X9d6v6cXi-3" value="" style="sketch=0;outlineConnect=0;fontColor=#232F3E;gradientColor=none;fillColor=#ED7100;strokeColor=none;dashed=0;verticalLabelPosition=bottom;verticalAlign=top;align=center;html=1;fontSize=12;fontStyle=0;aspect=fixed;pointerEvents=1;shape=mxgraph.aws4.instance2;" vertex="1" parent="iGM-KqZ_t17X9d6v6cXi-2">
          <mxGeometry x="70" y="70" width="48" height="48" as="geometry" />
        </mxCell>
        <mxCell id="iGM-KqZ_t17X9d6v6cXi-4" value="" style="sketch=0;outlineConnect=0;fontColor=#232F3E;gradientColor=none;fillColor=#ED7100;strokeColor=none;dashed=0;verticalLabelPosition=bottom;verticalAlign=top;align=center;html=1;fontSize=12;fontStyle=0;aspect=fixed;pointerEvents=1;shape=mxgraph.aws4.instance2;" vertex="1" parent="iGM-KqZ_t17X9d6v6cXi-2">
          <mxGeometry x="250" y="70" width="48" height="48" as="geometry" />
        </mxCell>
        <mxCell id="iGM-KqZ_t17X9d6v6cXi-5" value="" style="sketch=0;outlineConnect=0;fontColor=#232F3E;gradientColor=none;fillColor=#ED7100;strokeColor=none;dashed=0;verticalLabelPosition=bottom;verticalAlign=top;align=center;html=1;fontSize=12;fontStyle=0;aspect=fixed;pointerEvents=1;shape=mxgraph.aws4.instance2;" vertex="1" parent="iGM-KqZ_t17X9d6v6cXi-2">
          <mxGeometry x="436" y="70" width="48" height="48" as="geometry" />
        </mxCell>
        <mxCell id="iGM-KqZ_t17X9d6v6cXi-6" value="" style="sketch=0;outlineConnect=0;fontColor=#232F3E;gradientColor=none;fillColor=#ED7100;strokeColor=none;dashed=0;verticalLabelPosition=bottom;verticalAlign=top;align=center;html=1;fontSize=12;fontStyle=0;aspect=fixed;pointerEvents=1;shape=mxgraph.aws4.instance2;" vertex="1" parent="iGM-KqZ_t17X9d6v6cXi-2">
          <mxGeometry x="610" y="70" width="48" height="48" as="geometry" />
        </mxCell>
        <mxCell id="iGM-KqZ_t17X9d6v6cXi-7" value="" style="sketch=0;outlineConnect=0;fontColor=#232F3E;gradientColor=none;fillColor=#ED7100;strokeColor=none;dashed=0;verticalLabelPosition=bottom;verticalAlign=top;align=center;html=1;fontSize=12;fontStyle=0;aspect=fixed;pointerEvents=1;shape=mxgraph.aws4.instance2;" vertex="1" parent="iGM-KqZ_t17X9d6v6cXi-2">
          <mxGeometry x="780" y="70" width="48" height="48" as="geometry" />
        </mxCell>
        <mxCell id="iGM-KqZ_t17X9d6v6cXi-8" value="State Manager" style="sketch=0;outlineConnect=0;fontColor=#232F3E;gradientColor=none;fillColor=#E7157B;strokeColor=none;dashed=0;verticalLabelPosition=middle;verticalAlign=middle;align=left;html=1;fontSize=12;fontStyle=0;aspect=fixed;pointerEvents=1;shape=mxgraph.aws4.state_manager;labelPosition=right;" vertex="1" parent="iGM-KqZ_t17X9d6v6cXi-1">
          <mxGeometry x="150" y="280" width="78" height="78" as="geometry" />
        </mxCell>
        <mxCell id="iGM-KqZ_t17X9d6v6cXi-9" value="Round Start Timer" style="sketch=0;outlineConnect=0;fontColor=#232F3E;gradientColor=none;fillColor=#E7157B;strokeColor=none;dashed=0;verticalLabelPosition=bottom;verticalAlign=top;align=center;html=1;fontSize=12;fontStyle=0;aspect=fixed;pointerEvents=1;shape=mxgraph.aws4.event_time_based;" vertex="1" parent="iGM-KqZ_t17X9d6v6cXi-1">
          <mxGeometry x="880" y="540" width="78" height="78" as="geometry" />
        </mxCell>
        <mxCell id="iGM-KqZ_t17X9d6v6cXi-10" value="State Association Event" style="sketch=0;outlineConnect=0;fontColor=#232F3E;gradientColor=none;fillColor=#E7157B;strokeColor=none;dashed=0;verticalLabelPosition=middle;verticalAlign=middle;align=left;html=1;fontSize=12;fontStyle=0;aspect=fixed;pointerEvents=1;shape=mxgraph.aws4.event;labelPosition=right;whiteSpace=wrap;" vertex="1" parent="iGM-KqZ_t17X9d6v6cXi-1">
          <mxGeometry x="165" y="390" width="48" height="48" as="geometry" />
        </mxCell>
        <mxCell id="iGM-KqZ_t17X9d6v6cXi-12" value="Competitor Registration" style="sketch=0;outlineConnect=0;fontColor=#232F3E;gradientColor=none;fillColor=#ED7100;strokeColor=none;dashed=0;verticalLabelPosition=middle;verticalAlign=middle;align=left;html=1;fontSize=12;fontStyle=0;aspect=fixed;pointerEvents=1;shape=mxgraph.aws4.lambda_function;labelPosition=right;whiteSpace=wrap;" vertex="1" parent="iGM-KqZ_t17X9d6v6cXi-1">
          <mxGeometry x="165" y="470" width="48" height="48" as="geometry" />
        </mxCell>
        <mxCell id="iGM-KqZ_t17X9d6v6cXi-13" value="Rounds Table" style="sketch=0;points=[[0,0,0],[0.25,0,0],[0.5,0,0],[0.75,0,0],[1,0,0],[0,1,0],[0.25,1,0],[0.5,1,0],[0.75,1,0],[1,1,0],[0,0.25,0],[0,0.5,0],[0,0.75,0],[1,0.25,0],[1,0.5,0],[1,0.75,0]];outlineConnect=0;fontColor=#232F3E;fillColor=#C925D1;strokeColor=#ffffff;dashed=0;verticalLabelPosition=bottom;verticalAlign=top;align=center;html=1;fontSize=12;fontStyle=0;aspect=fixed;shape=mxgraph.aws4.resourceIcon;resIcon=mxgraph.aws4.dynamodb;" vertex="1" parent="iGM-KqZ_t17X9d6v6cXi-1">
          <mxGeometry x="520" y="540" width="78" height="78" as="geometry" />
        </mxCell>
        <mxCell id="iGM-KqZ_t17X9d6v6cXi-14" value="Round Manager" style="sketch=0;outlineConnect=0;fontColor=#232F3E;gradientColor=none;fillColor=#ED7100;strokeColor=none;dashed=0;verticalLabelPosition=bottom;verticalAlign=top;align=center;html=1;fontSize=12;fontStyle=0;aspect=fixed;pointerEvents=1;shape=mxgraph.aws4.lambda_function;" vertex="1" parent="iGM-KqZ_t17X9d6v6cXi-1">
          <mxGeometry x="720" y="555" width="48" height="48" as="geometry" />
        </mxCell>
        <mxCell id="iGM-KqZ_t17X9d6v6cXi-29" value="" style="edgeStyle=orthogonalEdgeStyle;rounded=0;orthogonalLoop=1;jettySize=auto;html=1;" edge="1" parent="iGM-KqZ_t17X9d6v6cXi-1" source="iGM-KqZ_t17X9d6v6cXi-17" target="iGM-KqZ_t17X9d6v6cXi-18">
          <mxGeometry relative="1" as="geometry" />
        </mxCell>
        <mxCell id="iGM-KqZ_t17X9d6v6cXi-17" value="Ec2" style="sketch=0;points=[[0,0,0],[0.25,0,0],[0.5,0,0],[0.75,0,0],[1,0,0],[0,1,0],[0.25,1,0],[0.5,1,0],[0.75,1,0],[1,1,0],[0,0.25,0],[0,0.5,0],[0,0.75,0],[1,0.25,0],[1,0.5,0],[1,0.75,0]];outlineConnect=0;fontColor=#232F3E;fillColor=#ED7100;strokeColor=#ffffff;dashed=0;verticalLabelPosition=middle;verticalAlign=middle;align=left;html=1;fontSize=12;fontStyle=0;aspect=fixed;shape=mxgraph.aws4.resourceIcon;resIcon=mxgraph.aws4.ec2;labelPosition=right;" vertex="1" parent="iGM-KqZ_t17X9d6v6cXi-1">
          <mxGeometry x="335" y="280" width="78" height="78" as="geometry" />
        </mxCell>
        <mxCell id="iGM-KqZ_t17X9d6v6cXi-18" value="Instance State Change Event" style="sketch=0;outlineConnect=0;fontColor=#232F3E;gradientColor=none;fillColor=#E7157B;strokeColor=none;dashed=0;verticalLabelPosition=middle;verticalAlign=middle;align=left;html=1;fontSize=12;fontStyle=0;aspect=fixed;pointerEvents=1;shape=mxgraph.aws4.event;labelPosition=right;whiteSpace=wrap;" vertex="1" parent="iGM-KqZ_t17X9d6v6cXi-1">
          <mxGeometry x="347.5" y="390" width="53" height="53" as="geometry" />
        </mxCell>
        <mxCell id="iGM-KqZ_t17X9d6v6cXi-19" value="Competitor Tracker" style="sketch=0;outlineConnect=0;fontColor=#232F3E;gradientColor=none;fillColor=#ED7100;strokeColor=none;dashed=0;verticalLabelPosition=middle;verticalAlign=middle;align=left;html=1;fontSize=12;fontStyle=0;aspect=fixed;pointerEvents=1;shape=mxgraph.aws4.lambda_function;labelPosition=right;whiteSpace=wrap;" vertex="1" parent="iGM-KqZ_t17X9d6v6cXi-1">
          <mxGeometry x="350" y="470" width="48" height="48" as="geometry" />
        </mxCell>
        <mxCell id="iGM-KqZ_t17X9d6v6cXi-21" value="Fight Table" style="sketch=0;points=[[0,0,0],[0.25,0,0],[0.5,0,0],[0.75,0,0],[1,0,0],[0,1,0],[0.25,1,0],[0.5,1,0],[0.75,1,0],[1,1,0],[0,0.25,0],[0,0.5,0],[0,0.75,0],[1,0.25,0],[1,0.5,0],[1,0.75,0]];outlineConnect=0;fontColor=#232F3E;fillColor=#C925D1;strokeColor=#ffffff;dashed=0;verticalLabelPosition=bottom;verticalAlign=top;align=center;html=1;fontSize=12;fontStyle=0;aspect=fixed;shape=mxgraph.aws4.resourceIcon;resIcon=mxgraph.aws4.dynamodb;" vertex="1" parent="iGM-KqZ_t17X9d6v6cXi-1">
          <mxGeometry x="705" y="280" width="78" height="78" as="geometry" />
        </mxCell>
        <mxCell id="iGM-KqZ_t17X9d6v6cXi-22" value="Fight Monitor" style="sketch=0;outlineConnect=0;fontColor=#232F3E;gradientColor=none;fillColor=#ED7100;strokeColor=none;dashed=0;verticalLabelPosition=bottom;verticalAlign=top;align=center;html=1;fontSize=12;fontStyle=0;aspect=fixed;pointerEvents=1;shape=mxgraph.aws4.lambda_function;" vertex="1" parent="iGM-KqZ_t17X9d6v6cXi-1">
          <mxGeometry x="720" y="410" width="48" height="48" as="geometry" />
        </mxCell>
        <mxCell id="iGM-KqZ_t17X9d6v6cXi-25" value="" style="edgeStyle=orthogonalEdgeStyle;html=1;endArrow=none;elbow=vertical;startArrow=block;startFill=1;strokeColor=#545B64;rounded=0;" edge="1" parent="iGM-KqZ_t17X9d6v6cXi-1" source="iGM-KqZ_t17X9d6v6cXi-14" target="iGM-KqZ_t17X9d6v6cXi-9">
          <mxGeometry width="100" relative="1" as="geometry">
            <mxPoint x="490" y="470" as="sourcePoint" />
            <mxPoint x="590" y="470" as="targetPoint" />
          </mxGeometry>
        </mxCell>
        <mxCell id="iGM-KqZ_t17X9d6v6cXi-27" value="" style="edgeStyle=orthogonalEdgeStyle;html=1;endArrow=none;elbow=vertical;startArrow=block;startFill=1;strokeColor=#545B64;rounded=0;" edge="1" parent="iGM-KqZ_t17X9d6v6cXi-1" source="iGM-KqZ_t17X9d6v6cXi-13" target="iGM-KqZ_t17X9d6v6cXi-14">
          <mxGeometry width="100" relative="1" as="geometry">
            <mxPoint x="778" y="589" as="sourcePoint" />
            <mxPoint x="890" y="589" as="targetPoint" />
          </mxGeometry>
        </mxCell>
        <mxCell id="iGM-KqZ_t17X9d6v6cXi-28" value="" style="edgeStyle=orthogonalEdgeStyle;html=1;endArrow=none;elbow=vertical;startArrow=block;startFill=1;strokeColor=#545B64;rounded=0;" edge="1" parent="iGM-KqZ_t17X9d6v6cXi-1" source="iGM-KqZ_t17X9d6v6cXi-18" target="iGM-KqZ_t17X9d6v6cXi-17">
          <mxGeometry width="100" relative="1" as="geometry">
            <mxPoint x="608" y="589" as="sourcePoint" />
            <mxPoint x="730" y="589" as="targetPoint" />
          </mxGeometry>
        </mxCell>
        <mxCell id="iGM-KqZ_t17X9d6v6cXi-30" value="" style="edgeStyle=orthogonalEdgeStyle;rounded=0;orthogonalLoop=1;jettySize=auto;html=1;" edge="1" parent="iGM-KqZ_t17X9d6v6cXi-1" source="iGM-KqZ_t17X9d6v6cXi-18" target="iGM-KqZ_t17X9d6v6cXi-19">
          <mxGeometry relative="1" as="geometry">
            <mxPoint x="384" y="368" as="sourcePoint" />
            <mxPoint x="384" y="420" as="targetPoint" />
          </mxGeometry>
        </mxCell>
        <mxCell id="iGM-KqZ_t17X9d6v6cXi-31" value="" style="edgeStyle=orthogonalEdgeStyle;html=1;endArrow=none;elbow=vertical;startArrow=block;startFill=1;strokeColor=#545B64;rounded=0;" edge="1" parent="iGM-KqZ_t17X9d6v6cXi-1" source="iGM-KqZ_t17X9d6v6cXi-10" target="iGM-KqZ_t17X9d6v6cXi-8">
          <mxGeometry width="100" relative="1" as="geometry">
            <mxPoint x="384" y="420" as="sourcePoint" />
            <mxPoint x="384" y="368" as="targetPoint" />
          </mxGeometry>
        </mxCell>
        <mxCell id="iGM-KqZ_t17X9d6v6cXi-32" value="" style="edgeStyle=orthogonalEdgeStyle;html=1;endArrow=none;elbow=vertical;startArrow=block;startFill=1;strokeColor=#545B64;rounded=0;" edge="1" parent="iGM-KqZ_t17X9d6v6cXi-1" source="iGM-KqZ_t17X9d6v6cXi-12" target="iGM-KqZ_t17X9d6v6cXi-10">
          <mxGeometry width="100" relative="1" as="geometry">
            <mxPoint x="199" y="420" as="sourcePoint" />
            <mxPoint x="199" y="368" as="targetPoint" />
          </mxGeometry>
        </mxCell>
      </root>
    </mxGraphModel>
  </diagram>
</mxfile>
